<svg xmlns="http://www.w3.org/2000/svg" height="40" viewBox="0 96 960 960" width="40"><path d="m480 928-44-39.833q-102.933-93.905-170.323-162.241-67.391-68.335-107.319-122.032-39.927-53.697-55.809-97.772-15.882-44.075-15.882-89.455 0-89.34 59.997-149.337 59.996-59.997 148.669-59.997 54.621 0 102.311 25.334Q445.333 258 480 306q39.5-49.667 85.457-74.167 45.957-24.5 99.296-24.5 88.59 0 148.585 59.961 59.995 59.96 59.995 149.245 0 45.498-15.882 89.578-15.882 44.08-55.809 97.777-39.928 53.697-107.319 122.032Q626.933 794.262 524 888.167L480 928Z"/></svg>