<svg xmlns="http://www.w3.org/2000/svg" height="40" viewBox="0 96 960 960" width="40"><path d="M715.167 774.167V647.5H588.5v-63.333h126.667V457.5H778.5v126.667h126.667V647.5H778.5v126.667h-63.333ZM440 928.667 338.833 837.5q-80.5-72.5-136.25-128.083-55.75-55.584-90.416-102.334-34.667-46.75-50.084-88.75-15.416-42-15.416-87.188 0-91.645 61.663-153.062 61.664-61.416 153.67-61.416 51.525 0 98.096 21.75Q406.667 260.167 440 300.5q34.167-40.667 80.469-62.25 46.303-21.583 97.531-21.583 83.783 0 141.475 51.833 57.692 51.833 69.692 124.333-19.167-8.333-39.5-12.583Q769.333 376 749 376q-100.212 0-170.356 69.827Q508.5 515.655 508.5 616.113q0 51.72 21.156 98.254Q550.812 760.9 590 794.746q-18.5 16.921-45.583 40.671-27.084 23.75-49.084 43.416L440 928.667Z"/></svg>