<svg xmlns="http://www.w3.org/2000/svg" height="40" viewBox="0 96 960 960" width="40"><path d="M147.55 805.333q-18.883 0-31.383-13.084-12.5-13.083-12.5-31.033 0-17.949 12.617-30.916 12.617-12.966 31.166-12.966 18.55 0 31.383 13.083 12.833 13.084 12.833 31.033 0 17.95-13.083 30.916-13.084 12.967-31.033 12.967Zm0-185.333q-18.883 0-31.383-13.084-12.5-13.083-12.5-31.033 0-17.95 12.617-30.916Q128.901 532 147.45 532q18.55 0 31.383 13.084 12.833 13.083 12.833 31.033 0 17.95-13.083 30.916Q165.499 620 147.55 620Zm0-185.334q-18.883 0-31.383-13.083-12.5-13.084-12.5-31.033 0-17.95 12.617-30.916 12.617-12.967 31.166-12.967 18.55 0 31.383 13.084 12.833 13.083 12.833 31.033 0 17.949-13.083 30.916-13.084 12.966-31.033 12.966Zm141.45 368v-83.999h568v83.999H289Zm0-185.333v-83.999h568v83.999H289Zm0-184v-83.999h568v83.999H289Z"/></svg>