<svg xmlns="http://www.w3.org/2000/svg" height="48" viewBox="0 96 960 960" width="48"><path d="M536.384 616.076q-41.922 0-70.96-29.038-29.038-29.038-29.038-70.961 0-41.922 29.038-70.96 29.038-29.038 70.96-29.038 41.923 0 70.961 29.038 29.038 29.038 29.038 70.96 0 41.923-29.038 70.961-29.038 29.038-70.961 29.038ZM238.309 769.537q-29.5 0-50.096-20.596-20.596-20.596-20.596-50.096V334.309q0-29.5 20.596-50.096 20.596-20.596 50.096-20.596h596.15q29.5 0 50.096 20.596 20.596 20.596 20.596 50.096v364.536q0 29.5-20.596 50.096-20.596 20.596-50.096 20.596h-596.15Zm80.614-58.383h434.923q0-38.231 27.419-65.577 27.419-27.346 65.503-27.346V414.923q-38.231 0-65.576-27.419-27.346-27.419-27.346-65.503H318.923q0 38.23-27.419 65.576-27.419 27.346-65.503 27.346v203.308q38.23 0 65.576 27.419 27.346 27.419 27.346 65.504Zm464.998 170.152h-658.38q-29.5 0-50.096-20.596-20.596-20.597-20.596-50.096V383.848h58.383v426.766q0 4.615 3.847 8.462 3.846 3.846 8.462 3.846h658.38v58.384ZM238.309 711.154h-12.308V322.001h12.308q-5 0-8.654 3.654t-3.654 8.654v364.536q0 5 3.654 8.654 3.654 3.655 8.654 3.655Z"/></svg>