<svg xmlns="http://www.w3.org/2000/svg" height="40" viewBox="0 96 960 960" width="40"><path d="M287.248 968.667q-30.01 0-51.296-21.371-21.285-21.371-21.285-51.381 0-30.011 21.371-51.296t51.381-21.285q30.01 0 51.296 21.371Q360 866.076 360 896.086t-21.371 51.295q-21.371 21.286-51.381 21.286Zm394 0q-30.01 0-51.296-21.371-21.285-21.371-21.285-51.381 0-30.011 21.371-51.296t51.381-21.285q30.01 0 51.296 21.371Q754 866.076 754 896.086t-21.371 51.295q-21.371 21.286-51.381 21.286ZM240 322.666l105.333 218.667h282.001l120-218.667H240Zm-31.242-63.333h580.458q22.976 0 34.463 20.506 11.488 20.505.154 40.828L689.167 563.333q-10.334 18.833-28.165 30.083-17.832 11.25-38.335 11.25H325.333L272.666 702H754v63.333H280.856q-42.524 0-61.94-30.75-19.416-30.749-.249-65.76l60.667-110.559L131.5 244.666H54v-63.333h118l36.758 78Zm136.575 282h282.001-282.001Z"/></svg>